<?xml version="1.0" encoding="utf-8"?>
<!-- Generator: Adobe Illustrator 22.0.1, SVG Export Plug-In . SVG Version: 6.00 Build 0)  -->
<svg version="1.1" id="Layer_1" xmlns="http://www.w3.org/2000/svg" xmlns:xlink="http://www.w3.org/1999/xlink" x="0px" y="0px"
	 viewBox="0 0 593.2 600.7" style="enable-background:new 0 0 593.2 600.7;" xml:space="preserve">
<style type="text/css">
	.st0{fill:#236477;}
	.st1{clip-path:url(#SVGID_2_);fill:#236477;}
	.st2{clip-path:url(#SVGID_2_);fill:#7E0A46;}
	.st3{clip-path:url(#SVGID_2_);}
</style>
<g>
	<path class="st0" d="M250.9,351.1l-8.6,15.3l-1.8,0l4.3-7.7c-0.3-0.6-0.7-1.2-1-1.8c-0.4-0.6-0.7-1.3-1.1-1.9s-0.7-1.3-1.1-1.9
		s-0.7-1.2-1-1.8h1.8l3.4,5.9c0.5-1,1.1-2,1.7-3s1.1-2,1.7-3H250.9z"/>
	<path class="st0" d="M268.1,356.7c0,1.5-0.6,2.9-1.8,4c-1.2,1.1-2.7,1.6-4.5,1.6c-0.9,0-1.7-0.1-2.4-0.4c-0.7-0.3-1.4-0.7-2-1.2
		c-1.2-1.1-1.8-2.4-1.8-4c0-1.6,0.6-2.9,1.8-3.9c1.2-1.1,2.7-1.6,4.5-1.6c1.7,0,3.2,0.5,4.5,1.6h0
		C267.5,353.9,268.1,355.2,268.1,356.7z M266.5,356.7c0-1.1-0.5-2.1-1.4-2.9c-0.9-0.8-2-1.2-3.3-1.2c-1.3,0-2.4,0.4-3.3,1.2
		c-0.9,0.8-1.4,1.8-1.4,2.9c0,1.1,0.5,2.1,1.4,2.9c0.9,0.8,2,1.2,3.3,1.2c1.3,0,2.4-0.4,3.3-1.2C266,358.8,266.5,357.8,266.5,356.7z
		"/>
	<path class="st0" d="M281.3,359.1c0,0.5-0.1,0.9-0.3,1.3c-0.2,0.4-0.5,0.8-0.9,1.1c-0.8,0.7-1.7,1-2.8,1s-2-0.3-2.8-1
		c-0.8-0.7-1.1-1.5-1.1-2.4v-8h1.6v8c0,0.6,0.2,1,0.7,1.4c0.4,0.4,1,0.6,1.6,0.6s1.2-0.2,1.6-0.6c0.4-0.4,0.7-0.9,0.7-1.4v-8h1.7
		V359.1z"/>
	<path class="st0" d="M292.4,352.9c-0.6-0.3-1.1-0.5-1.6-0.5c-0.6,0-1.2,0.2-1.6,0.6c-0.4,0.4-0.7,0.9-0.7,1.4v7.9h-1.6v-7.9
		c0-0.9,0.4-1.8,1.1-2.5c0.7-0.7,1.7-1,2.8-1c0.8,0,1.6,0.3,2.5,0.8L292.4,352.9z"/>
	<path class="st0" d="M312.7,352.9c-0.6-0.3-1.1-0.5-1.6-0.5c-0.6,0-1.2,0.2-1.6,0.6c-0.4,0.4-0.7,0.9-0.7,1.4v7.9h-1.6v-7.9
		c0-0.9,0.4-1.8,1.1-2.5c0.7-0.7,1.7-1,2.8-1c0.8,0,1.6,0.3,2.5,0.8L312.7,352.9z"/>
	<path class="st0" d="M320.7,348c0,0.6-0.3,0.8-0.9,0.8s-0.9-0.3-0.9-0.8c0-0.5,0.3-0.8,0.9-0.8S320.7,347.5,320.7,348z
		 M320.6,362.3H319v-11.1h1.6V362.3z"/>
	<path class="st0" d="M338.7,359.6c0,2.2-0.8,4-2.5,5.5c-1.7,1.4-3.9,2.2-6.7,2.2v-1.4c1.2,0,2.3-0.1,3.2-0.4s1.7-0.7,2.4-1.3
		c0.5-0.5,1-1,1.3-1.6c0.3-0.6,0.5-1.2,0.6-1.9c-0.6,0.6-1.3,1-2,1.3s-1.6,0.4-2.6,0.4c-0.9,0-1.7-0.1-2.4-0.4
		c-0.7-0.3-1.4-0.7-2-1.2c-1.2-1.1-1.8-2.4-1.8-4c0-1.6,0.6-2.9,1.8-3.9c1.2-1.1,2.7-1.6,4.5-1.6c1.7,0,3.2,0.5,4.5,1.6
		c1.2,1.1,1.8,2.4,1.8,3.9V359.6z M337.1,356.7c0-1.1-0.5-2.1-1.4-2.9c-0.9-0.8-2-1.2-3.3-1.2c-1.3,0-2.4,0.4-3.3,1.2
		c-0.9,0.8-1.4,1.8-1.4,2.9c0,0.6,0.1,1.1,0.3,1.6c0.2,0.5,0.6,0.9,1,1.3c0.9,0.8,2,1.2,3.3,1.2c1.3,0,2.4-0.4,3.3-1.2
		C336.6,358.8,337,357.9,337.1,356.7z"/>
	<path class="st0" d="M351.9,362.3h-1.6v-7.9c0-0.5-0.2-1-0.7-1.4c-0.5-0.4-1-0.6-1.6-0.6c-0.6,0-1.2,0.2-1.6,0.6
		c-0.4,0.4-0.7,0.8-0.7,1.4v7.9H344v-15.1h1.6l0,4.3c0.3-0.2,0.7-0.3,1.1-0.5c0.4-0.1,0.8-0.2,1.2-0.2c0.6,0,1.1,0.1,1.5,0.2
		c0.5,0.2,0.9,0.4,1.3,0.8c0.8,0.7,1.2,1.5,1.2,2.5V362.3z"/>
	<path class="st0" d="M361.6,362.4c-1.3,0-2.4-0.3-3.2-1c-0.8-0.7-1.1-1.5-1.1-2.5V349h1.7v2.2h2.4v1.5H359v6.3
		c0,0.6,0.2,1.1,0.7,1.5v0c0.2,0.2,0.5,0.3,0.8,0.4c0.3,0.1,0.7,0.1,1.2,0.1V362.4z"/>
	<path class="st0" d="M384.4,353.1c-0.4-0.2-0.8-0.3-1.2-0.4c-0.4-0.1-0.7-0.1-1-0.1c-1.3,0-2.4,0.4-3.3,1.2
		c-0.9,0.8-1.4,1.8-1.4,2.9s0.5,2.1,1.4,2.9c0.9,0.8,2,1.2,3.3,1.2c0.3,0,0.6,0,0.9-0.1s0.7-0.2,1.1-0.3l0.8,1.3
		c-1,0.4-1.9,0.5-2.8,0.5c-1.8,0-3.3-0.5-4.5-1.6c-1.2-1.1-1.8-2.4-1.8-4c0-1.5,0.6-2.8,1.9-3.9h0c1.2-1.1,2.7-1.6,4.5-1.6
		c0.9,0,1.9,0.2,2.9,0.6L384.4,353.1z"/>
	<path class="st0" d="M397.7,362.3H396v-7.9c0-0.5-0.2-1-0.7-1.4c-0.5-0.4-1-0.6-1.6-0.6c-0.6,0-1.2,0.2-1.6,0.6
		c-0.4,0.4-0.7,0.8-0.7,1.4v7.9h-1.6v-15.1h1.6l0,4.3c0.3-0.2,0.7-0.3,1.1-0.5c0.4-0.1,0.8-0.2,1.2-0.2c0.6,0,1.1,0.1,1.5,0.2
		c0.5,0.2,0.9,0.4,1.3,0.8c0.8,0.7,1.2,1.5,1.2,2.5V362.3z"/>
	<path class="st0" d="M415.6,356.7c0,1.5-0.6,2.9-1.8,4c-1.2,1.1-2.7,1.6-4.5,1.6c-0.9,0-1.7-0.1-2.4-0.4c-0.7-0.3-1.4-0.7-2-1.2
		c-1.2-1.1-1.8-2.4-1.8-4c0-1.6,0.6-2.9,1.8-3.9c1.2-1.1,2.7-1.6,4.5-1.6c1.7,0,3.2,0.5,4.5,1.6h0
		C415,353.9,415.6,355.2,415.6,356.7z M414,356.7c0-1.1-0.5-2.1-1.4-2.9c-0.9-0.8-2-1.2-3.3-1.2c-1.3,0-2.4,0.4-3.3,1.2
		c-0.9,0.8-1.4,1.8-1.4,2.9c0,1.1,0.5,2.1,1.4,2.9c0.9,0.8,2,1.2,3.3,1.2c1.3,0,2.4-0.4,3.3-1.2C413.5,358.8,414,357.8,414,356.7z"
		/>
	<path class="st0" d="M423.2,348c0,0.6-0.3,0.8-0.9,0.8s-0.9-0.3-0.9-0.8c0-0.5,0.3-0.8,0.9-0.8S423.2,347.5,423.2,348z
		 M423.1,362.3h-1.6v-11.1h1.6V362.3z"/>
	<path class="st0" d="M437.3,353.1c-0.4-0.2-0.8-0.3-1.2-0.4c-0.4-0.1-0.7-0.1-1-0.1c-1.3,0-2.4,0.4-3.3,1.2
		c-0.9,0.8-1.4,1.8-1.4,2.9s0.5,2.1,1.4,2.9c0.9,0.8,2,1.2,3.3,1.2c0.3,0,0.6,0,0.9-0.1s0.7-0.2,1.1-0.3l0.8,1.3
		c-1,0.4-1.9,0.5-2.8,0.5c-1.8,0-3.3-0.5-4.5-1.6c-1.2-1.1-1.8-2.4-1.8-4c0-1.5,0.6-2.8,1.9-3.9h0c1.2-1.1,2.7-1.6,4.5-1.6
		c0.9,0,1.9,0.2,2.9,0.6L437.3,353.1z"/>
	<path class="st0" d="M454.9,359.5c-1.3,1.8-3.2,2.8-5.4,2.8c-1.8,0-3.3-0.5-4.5-1.6c-0.6-0.6-1.1-1.2-1.4-1.8
		c-0.3-0.7-0.4-1.4-0.4-2.1c0-1.6,0.6-2.9,1.9-3.9h0c1.2-1.1,2.7-1.6,4.5-1.6c2,0,3.7,0.8,5.1,2.3l-0.2,0.3L445,358
		c0.1,0.4,0.3,0.8,0.6,1.1s0.6,0.6,1,0.9c0.8,0.6,1.8,0.9,2.9,0.9c1.8,0,3.2-0.8,4.2-2.4L454.9,359.5z M446.1,353.8
		c-0.4,0.4-0.7,0.8-1,1.2s-0.3,0.9-0.4,1.5c1.2-0.5,2.4-1.1,3.6-1.6c1.1-0.5,2.3-1,3.6-1.6c-0.4-0.2-0.8-0.4-1.2-0.5
		c-0.4-0.1-0.9-0.2-1.3-0.2C448.1,352.6,447,353,446.1,353.8z"/>
</g>
<g>
	<defs>
		<rect id="SVGID_1_" width="593.2" height="600.7"/>
	</defs>
	<clipPath id="SVGID_2_">
		<use xlink:href="#SVGID_1_"  style="overflow:visible;"/>
	</clipPath>
	<path class="st1" d="M223,285.5c-1.1,0.1-2-0.7-2.1-1.8c-0.1-1.1,0.7-2,1.8-2.1c1.1-0.1,2,0.7,2.1,1.8
		C224.9,284.5,224.1,285.4,223,285.5"/>
	<path class="st1" d="M226.6,280.6c-1.1,0.1-2-0.7-2.1-1.8c-0.1-1.1,0.7-2,1.8-2.1c1.1-0.1,2,0.7,2.1,1.8
		C228.5,279.6,227.7,280.5,226.6,280.6"/>
	<path class="st2" d="M207.4,311.3c4.3-7.9,8.6-15.8,12.9-23.6c0.2,0.1,0.4,0.2,0.6,0.3c-2,4.4-3.9,8.8-5.9,13.2
		c-1.5,3.3-2.9,6.7-4.4,10c-0.7,1.4-0.6,2.5,0.4,3.7c4.2,5.4,7.4,11.4,7.9,18.3c0.9,12.5-3,23.3-12.3,31.9c-1,0.9-2.2,1.7-3.5,2.2
		c-4.8,1.9-9.2-0.5-10.3-5.5c-1.1-4.9-0.6-9.7,0.8-14.4c2.8-8.8,5.9-17.5,9.3-26.1c1-2.5,0.5-3.7-1.2-5.3c-6.4-6.2-14-10.7-22-14.5
		c-7.2-3.5-14.7-6.6-21.8-10.2c-5.9-3-11.4-6.6-15.4-12.1c-6-8.4-7.1-17.6-4.6-27.4c2.8-10.9,8.8-20.1,15.8-28.6
		c10.8-13.1,23.5-24.2,38.2-32.9c3.1-1.8,6.6-3.1,10-4c5.8-1.6,11.2,1.6,12.4,7.4c0.6,2.9,0.8,6.1,0.3,9c-2.2,11.6-7.5,22-13.1,32.3
		c0.5-1.6,0.9-3.2,1.4-4.8c2.5-8.6,4.7-17.2,5-26.2c0.1-2.4-0.2-4.9-0.7-7.2c-0.7-2.8-1.8-3.5-4.5-2.6c-2.8,0.9-5.5,2.1-8,3.7
		c-19.4,12.4-35.6,28-46.9,48.2c-2.1,3.8-3.5,8.1-4.4,12.4c-1.8,9,1.4,16.5,8.1,22.5c5.2,4.7,11.4,7.7,17.9,10.3
		c13.1,5.1,25.9,10.8,37,19.6C206.8,311,207.1,311.1,207.4,311.3 M206.4,322.7c-0.3,0-0.7,0-1-0.1c-2.7,8.8-5.4,17.6-8,26.5
		c-0.7,2.4-0.9,5.1-0.8,7.7c0.1,1.3,1.1,3.1,2.3,3.6c0.8,0.4,2.8-0.7,3.6-1.7c5.4-6.6,8.5-14.2,8.3-22.8
		C210.7,331.1,209.2,326.6,206.4,322.7"/>
	<path class="st3" d="M396.2,315c-0.5,1.1-0.7,1.6-1,2.2c-1,2.1-1.8,4.3-2.9,6.4c-0.7,1.3-1.6,2.5-2.5,3.6c-0.6,0.7-1.3,1.2-2,1.7
		c-1.6,0.9-3.3,0.8-4.8-0.3c-1.2-0.9-2.1-2-2.8-3.3c-1.3-2.3-2.2-4.7-3-7.2c-1.2-4-2-8-2.5-12.1c-0.1-1-0.3-1.9-0.5-2.9
		c-0.8-0.1-0.7,0.5-0.9,0.9c-1.4,2.3-2.6,4.6-4.1,6.9c-1.3,2-2.9,3.7-4.9,5.1c-1.9,1.3-4,2.1-6.4,1.8c-2.1-0.3-3.6-1.4-4.6-3.2
		c-0.5-1-0.8-2.1-1.3-3.3c-0.4,0.5-0.8,0.9-1.2,1.4c-1.7,2.6-3.6,5-5.9,7.1c-2.2,2.1-4.6,3.8-7.4,5c-2.4,1-5,1.5-7.6,1
		c-3.2-0.6-5.7-2.2-7.7-4.7c-1.6-1.9-2.6-4.1-3.3-6.5c-1.6-5.7-1.5-11.4,0.4-17c0.8-2.3,1.9-4.5,3.5-6.3c1-1.1,2-2.1,3.4-2.7
		c2.6-1.3,6.3-0.8,7.5,3.3c1.4,5-1.7,11.1-7.6,12.1c-1,0.2-2.1,0.1-3.1,0.2c-0.4,1.9-0.6,5.2-0.2,7.3c0.3,1.7,0.8,3.3,1.3,4.9
		c0.5,1.5,1.4,2.7,2.5,3.8c1.3,1.2,2.8,1.9,4.5,2.1c2.5,0.3,4.8-0.2,7.1-1.3c2.4-1.2,4.5-2.9,6.4-4.8c3.1-3.1,5.5-6.8,7.6-10.6
		c0.4-0.8,0.6-1.7,0.9-2.5c1.4-3.9,3.6-7.1,7-9.4c2.4-1.6,5-2.6,7.9-2.7c0.6,0,1.2,0,1.7,0.1c0.4,0.1,0.9,0.4,1.2,0.7
		c0.4,0.4,0.3,1.2-0.3,1.4c-0.5,0.2-1.1,0.3-1.6,0.5c-6.8,1.9-10.5,6.6-12.2,13.2c-0.3,1.2-0.3,2.6-0.1,3.9c0.3,2.3,1.9,3.3,4.2,2.8
		c1.2-0.3,2.1-0.8,2.9-1.6c1.1-1.1,2.1-2.2,3-3.5c2.7-3.8,4.6-8,6.3-12.3c0.3-0.6,0.3-1.4,0.3-2.1c-0.5-8.4-0.5-16.9-0.1-25.3
		c0.4-8.6,1.3-17.1,3.3-25.5c0.6-2.8,1.4-5.5,2.5-8.1c0.6-1.4,1.4-2.7,2.2-4c0.4-0.7,1-1.3,1.7-1.8c1.4-1,2.8-0.8,3.8,0.6
		c0.9,1.2,1.2,2.6,1.5,4.1c0.5,3.1,0.6,6.1,0.3,9.2c-0.4,4-0.8,8.1-1.4,12.1c-1.9,11.5-4.6,22.9-8.2,34c-0.8,2.4-1,4.7-0.7,7.2
		c0.5,4.3,0.8,8.7,1.3,13.1c0.4,3.9,1.1,7.7,2.4,11.4c0.4,1.1,0.8,2.1,1.4,3.1c0.3,0.6,0.9,1.2,1.4,1.7c0.7,0.6,1.5,0.7,2.2,0.2
		c0.7-0.5,1.5-1.1,1.9-1.8c1-1.6,2-3.3,2.8-5.1c1.7-3.8,2.9-7.7,4-11.7c0.2-0.9,0.3-1.8,0.4-2.6c0.2-1.1,0.3-2.2,0.6-3.3
		c0.1-0.5,0.4-1.1,0.8-1.5c0.7-0.9,2.2-0.7,2.6,0.3c0.3,0.6,0.4,1.2,0.5,1.9c0.1,1.5,0.1,2.9,0.1,4.4c0,4.1-0.1,8.1-0.1,12.2
		c0,0.6-0.1,1.3-0.2,1.9c-0.1,0.5-0.9,0.8-1.4,0.6c-0.9-0.3-1.3-1-1.6-1.7C396.9,317.9,396.7,316.8,396.2,315 M377.8,281.2l0.4,0.1
		c0.3-0.8,0.6-1.6,0.8-2.5c2.8-10.2,4.9-20.5,6.3-30.9c0.5-3.7,0.8-7.4,0.7-11.1c0-0.7,0-1.5-0.2-2.2c-0.1-0.6-0.2-1.4-0.9-1.6
		c-0.9-0.2-1.3,0.6-1.5,1.3c-0.7,1.7-1.4,3.5-1.9,5.2c-1.6,6.2-2.3,12.6-2.8,18.9c-0.4,5.6-0.6,11.2-0.8,16.7
		C377.7,277.1,377.8,279.2,377.8,281.2 M323.4,300.3c0.2,0.1,0.2,0.2,0.3,0.2c4.5,1.2,7.9-4.3,6.7-8.1c-0.4-1.2-1.7-1.6-2.8-1
		c-0.5,0.3-1,0.8-1.4,1.3C324.7,295.1,323.8,297.7,323.4,300.3"/>
	<path class="st3" d="M424.3,300.6c-0.3,0.6-0.6,1.3-0.9,1.9c-1.1,2.2-2.2,4.5-3.5,6.7c-0.7,1.2-1.8,2.3-2.8,3.3
		c-0.7,0.7-1.6,1.1-2.6,1.3c-1.8,0.3-3.4-0.3-4.4-1.9c-0.6-1-0.9-2.1-1-3.2c-0.1-2,0-3.9,0.5-5.8c1-3.7,2.5-7,5.1-9.8
		c1.8-2,3.9-3.5,6.5-4c1.7-0.3,3.2,0.1,4.4,1.4c0.4,0.4,0.6,0.9,0.8,1.5c0.2,0.7-0.1,1.3-0.6,1.7c-0.5,0.4-1,0.4-1.6,0.1
		c-0.3-0.2-0.6-0.3-0.9-0.5c-1.3-0.8-2.5-0.5-3.6,0.4c-0.7,0.6-1.4,1.3-2,2.1c-2.5,3.4-4.1,7.1-5,11.2c-0.2,0.9-0.1,1.9,0,2.9
		c0.1,0.7,0.9,1.1,1.5,0.7c0.7-0.5,1.5-1,2.1-1.6c0.9-1.1,1.7-2.2,2.3-3.4c0.9-1.6,1.6-3.3,2.5-5c0.6-1.2,1.2-2.3,1.9-3.4
		c0.3-0.5,0.8-1,1.3-1.4c2-1.7,3.8-1.2,4.7,1.2c0.5,1.3,0.6,2.7,0.7,4.1c0.1,3.1,0.2,6.1,0.5,9.2c0.2,1.8,0.5,3.7,1,5.5
		c0.9,3.4,2.3,3.7,4.9,1.3c1.4-1.3,2.7-2.8,3.9-4.3c2.2-2.8,4.2-5.8,6.2-8.7c0.6-0.9,1.2-1.7,1.9-2.5c0.3-0.4,0.8-0.7,1.3-0.3
		c0.2,0.2,0.3,0.8,0.2,1.1c-0.2,0.8-0.6,1.5-0.9,2.2c-2.2,4-4.5,7.9-7.4,11.4c-1.1,1.3-2.2,2.6-3.5,3.7c-0.9,0.8-2,1.4-3,2
		c-1.8,0.9-3.5,0.5-4.9-0.8c-1.1-1-1.8-2.2-2.4-3.6c-1-2.5-1.6-5.1-1.9-7.7c-0.3-2.6-0.4-5.2-0.5-7.7c0-0.3-0.1-0.6-0.1-0.9
		C424.5,300.7,424.4,300.6,424.3,300.6"/>
	<path class="st1" d="M401.6,288.9c0,1-0.2,2-1,2.8c-0.5,0.5-1.1,0.7-1.8,0.5c-0.7-0.3-1.2-1-1.2-1.7c0-1.2,1.4-2.8,2.7-3
		C401.1,287.3,401.5,287.9,401.6,288.9"/>
	<path class="st3" d="M314.7,342.1c-0.2-0.1-0.5-0.2-0.7-0.2c-1.2-0.1-1.9-0.9-2.3-1.9c-0.5-1.1-0.9-2.3-1.2-3.4
		c-1.1-4.4-1.6-8.9-2-13.4c-0.3-3.4-0.4-6.8-0.7-10.2c-0.7-9.6-0.2-14.1,0.3-23.7c0.3-5.2,0.8-10.3,1.3-15.5
		c0.3-3.5,0.7-6.9,1.2-10.4c0.6-4.6,1.4-9.1,2-13.7c0.2-1.8,0.3-3.6,0.1-5.3c-0.2-1.9-1.6-2.9-3.7-1.7c-0.8,0.4-1.4,1.1-2,1.7
		c-0.9,1.1-1.8,2.3-2.6,3.5c-1.5,2.4-2.9,4.9-4.2,7.4c-3.3,6.2-6.4,12.5-9.6,18.8c-2.7,5.3-5.5,10.7-8.3,15.9
		c-1.2,2.2-2.6,4.3-4,6.4c-0.7,1-1.6,1.9-2.5,2.6c-1.4,1.2-2.9,1-4-0.4c-0.9-1.2-1.6-2.5-2.1-3.8c-1-2.7-1.8-5.6-2.5-8.4
		c-1.2-4.4-2.2-8.8-3.4-13.2c-0.5-1.9-1.3-3.8-2.1-5.7c-0.4-0.9-1.1-1.8-1.8-2.5c-0.8-0.8-2-0.8-2.9-0.1c-0.6,0.5-1.2,1.2-1.6,1.8
		c-0.7,1.1-1.3,2.3-1.7,3.5c-0.9,2.3-1.7,4.7-2.5,7.1c-2.7,8.9-4.9,18-6.8,27.1c-0.1,0.5-0.1,1-0.7,1.2c0,0,0,0,0,0
		c0.2-1.9,0.4-3.7,0.6-5.6c0.3-3.1,0.7-6.1,1-9.2c0.2-2.3,0.2-4.5,0.2-6.8c0-0.4,0.1-1-0.6-1.3c-0.2,0.2-0.4,0.4-0.5,0.6
		c-0.3,0.9-0.7,1.8-0.9,2.8c-1.2,4.9-1.8,9.9-2.3,14.9c-0.8,7.4-1.2,14.9-1.4,22.3c-0.1,3.5,0.1,7,0.2,10.4c0,0.7,0.3,1.4,0.5,2.1
		c0.2,0.5,0.7,0.8,1.2,0.7c0.4-0.1,1-0.4,1.1-0.8c0.3-0.9,0.5-1.9,0.6-2.8c0.4-3.8,0.6-7.6,1.2-11.3c0.9-5.9,2-11.8,3.2-17.7
		c2-9.4,4.3-18.8,7.2-28c0.5-1.5,1.1-2.9,1.7-4.3c0.1-0.3,0.5-0.5,0.9-0.9c0.4,0.6,0.7,0.9,0.8,1.3c0.4,1.2,0.7,2.5,1,3.7
		c0.8,3.6,1.6,7.3,2.5,10.9c0.8,3.5,1.9,6.9,3.3,10.1c0.9,1.9,1.8,3.8,3.3,5.3c2.5,2.6,5,2.9,8,1c1.5-1,2.7-2.3,3.9-3.6
		c2-2.4,3.7-5,5.1-7.7c2.2-4.1,4.4-8.3,6.4-12.5c4.4-9.1,8.8-18.2,13.6-27.1c0.7-1.3,1.4-2.6,2.1-3.8c0.1-0.2,0.4-0.4,0.8-0.7
		c0.2,1,0,1.8-0.2,2.6c-0.7,3.9-1.5,7.8-2.2,11.7c-1.1,7.1-2,14.3-2.6,21.5c-0.6,6.9-1,13.7-1.2,20.6c-0.2,7.5,0.3,9.9,1,17.3
		c0.4,4.8,1.1,9.5,2.3,14.1c0.6,2.2,1.3,4.4,2.3,6.4c0.6,1.1,1.3,2.1,2.2,2.8c1.5,1.2,3.3,1.2,4.7,0.1
		C316.1,343.9,316,342.7,314.7,342.1"/>
</g>
</svg>
